<svg xmlns="http://www.w3.org/2000/svg" width="24" height="24" viewBox="0 0 24 24" fill="none">
  <mask id="path-1-inside-1_492_1321" fill="white">
    <path d="M1.75 4.40991H12.75H1.75Z"/>
  </mask>
  <path d="M1.75 3.40991C1.19772 3.40991 0.75 3.85763 0.75 4.40991C0.75 4.9622 1.19772 5.40991 1.75 5.40991V3.40991ZM12.75 5.40991C13.3023 5.40991 13.75 4.9622 13.75 4.40991C13.75 3.85763 13.3023 3.40991 12.75 3.40991V5.40991ZM1.75 5.40991H12.75V3.40991H1.75V5.40991Z" fill="white" mask="url(#path-1-inside-1_492_1321)"/>
  <mask id="path-3-inside-2_492_1321" fill="white">
    <path d="M2 12H22.2105H2Z"/>
  </mask>
  <path d="M2 11C1.44772 11 1 11.4477 1 12C1 12.5523 1.44772 13 2 13V11ZM22.2105 13C22.7628 13 23.2105 12.5523 23.2105 12C23.2105 11.4477 22.7628 11 22.2105 11V13ZM2 13H22.2105V11H2V13Z" fill="white" mask="url(#path-3-inside-2_492_1321)"/>
  <mask id="path-5-inside-3_492_1321" fill="white">
    <path d="M2 20H13H2Z"/>
  </mask>
  <path d="M2 19C1.44772 19 1 19.4477 1 20C1 20.5523 1.44772 21 2 21V19ZM13 21C13.5523 21 14 20.5523 14 20C14 19.4477 13.5523 19 13 19V21ZM2 21H13V19H2V21Z" fill="white" mask="url(#path-5-inside-3_492_1321)"/>
</svg>